<svg xmlns="http://www.w3.org/2000/svg" xmlns:xlink="http://www.w3.org/1999/xlink" width="2000" zoomAndPan="magnify" viewBox="0 0 1500 1499.999933" height="2000" preserveAspectRatio="xMidYMid meet" version="1.0"><defs><clipPath id="88770a1f7b"><path d="M 0 0 L 1500 0 L 1500 1500 L 0 1500 Z M 0 0 " clip-rule="nonzero"/></clipPath><clipPath id="68e294cec2"><rect x="0" width="1500" y="0" height="1500"/></clipPath><clipPath id="213860800a"><path d="M 409 417 L 1083 417 L 1083 1091 L 409 1091 Z M 409 417 " clip-rule="nonzero"/></clipPath><clipPath id="54a39af1ec"><path d="M 177.851562 749.476562 L 749.546875 177.78125 L 1322.304688 750.539062 L 750.609375 1322.234375 Z M 177.851562 749.476562 " clip-rule="nonzero"/></clipPath><clipPath id="5a59ebffcc"><path d="M 177.851562 749.476562 L 749.546875 177.78125 L 1322.304688 750.539062 L 750.609375 1322.234375 Z M 177.851562 749.476562 " clip-rule="nonzero"/></clipPath></defs><rect x="-150" width="1800" fill="#ffffff" y="-149.999993" height="1799.99992" fill-opacity="1"/><rect x="-150" width="1800" fill="#ffffff" y="-149.999993" height="1799.99992" fill-opacity="1"/><g transform="matrix(1, 0, 0, 1, 0, 0.000000000000112861)"><g clip-path="url(#68e294cec2)"><g clip-path="url(#88770a1f7b)"><rect x="-330" width="2160" fill="#0eb5be" height="2159.999904" y="-329.999985" fill-opacity="1"/></g></g></g><g clip-path="url(#213860800a)"><g clip-path="url(#54a39af1ec)"><g clip-path="url(#5a59ebffcc)"><path fill="#ffffff" d="M 1082.617188 511.488281 C 933.714844 783.480469 1017.082031 929.695312 1080.023438 992.636719 L 981.972656 1090.6875 C 931.320312 1040.035156 844.449219 923.511719 863.546875 734.496094 L 513.402344 1084.644531 L 415.351562 986.59375 L 765.492188 636.449219 C 576.484375 655.546875 459.957031 568.675781 409.304688 518.023438 L 507.355469 419.972656 C 570.304688 482.921875 716.519531 566.289062 988.5 417.386719 Z M 1082.617188 511.488281 " fill-opacity="1" fill-rule="nonzero"/></g></g></g></svg>